<svg width="16" height="16" viewBox="0 0 16 16" fill="none" xmlns="http://www.w3.org/2000/svg">
  <g clip-path="url(#clipFriend)">
    <!-- Two hands/friendship icon -->
    <path d="M5.5 7C4.67157 7 4 7.67157 4 8.5V10C4 10.2761 4.22386 10.5 4.5 10.5H7.5L6.5 13.5C6.5 13.5 6.5 14.5 7.5 14.5H9.5C10.5 14.5 10.5 13.5 10.5 13.5L9.5 10.5H12.5C12.7761 10.5 13 10.2761 13 10V8.5C13 7.67157 12.3284 7 11.5 7H5.5Z" fill="white"/>
    <path d="M3 7.5C2.17157 7.5 1.5 8.17157 1.5 9V10C1.5 10.2761 1.72386 10.5 2 10.5H3.5V7.5H3Z" fill="white" fill-opacity="0.6"/>
    <path d="M14 7.5C14.8284 7.5 15.5 8.17157 15.5 9V10C15.5 10.2761 15.2761 10.5 15 10.5H13.5V7.5H14Z" fill="white" fill-opacity="0.6"/>
    <!-- Heart -->
    <path d="M8 5.5C8 5.5 6.5 3.5 5 3.5C3.5 3.5 2.5 4.5 2.5 6C2.5 7.5 8 11.5 8 11.5C8 11.5 13.5 7.5 13.5 6C13.5 4.5 12.5 3.5 11 3.5C9.5 3.5 8 5.5 8 5.5Z" stroke="white" stroke-width="1" fill="none"/>
  </g>
  <defs>
    <clipPath id="clipFriend">
      <rect width="16" height="16" fill="white"/>
    </clipPath>
  </defs>
</svg>
