<svg width="8" height="8" viewBox="0 0 8 8" fill="none" xmlns="http://www.w3.org/2000/svg">
  <g>
    <path d="M3.99954 0.299805L5.17511 2.68177L7.80376 3.06374L5.90165 4.91784L6.35068 7.53587L3.99954 6.2998L1.6484 7.53587L2.09743 4.91784L0.195312 3.06374L2.82397 2.68177L3.99954 0.299805Z" fill="#FFB93B" />
    <path fill-rule="evenodd" clip-rule="evenodd" d="M5.17511 2.68177L3.99954 0.299805L2.82397 2.68177L0.195312 3.06374L2.09743 4.91784L1.6484 7.53587L3.99954 6.2998L6.35068 7.53587L5.90165 4.91784L7.80376 3.06374L5.17511 2.68177ZM7.15908 3.27321L4.97589 2.95597L3.99954 0.97767L3.02319 2.95597L0.840001 3.27321L2.41977 4.8131L2.04684 6.98747L3.99954 5.96087L5.95224 6.98747L5.57931 4.8131L7.15908 3.27321Z" fill="black" fill-opacity="0.3" />
  </g>
</svg>
