<svg width="16" height="16" viewBox="0 0 16 16" fill="none" xmlns="http://www.w3.org/2000/svg">
<g clip-path="url(#clip0_2239_3005)">
<path d="M0 16L4 7.12686L2.25486 1.67314L8.29143 4L16 0L12 8.29143L13.7451 13.7451L8.29143 12L0 16Z" fill="white"/>
<path opacity="0.5" d="M8.05134 0.216518C6.65024 0.216518 5.35935 0.573505 4.25 1.19643L8.37946 2.78795L11.6205 1.10491C10.5522 0.53849 9.33801 0.216518 8.05134 0.216518ZM1.71652 3.51339C0.852022 4.77055 0.352676 6.29764 0.352676 7.93973C0.352676 8.99684 0.568638 10.0054 0.957587 10.9241L2.78794 6.86161L1.71652 3.51339ZM15.0089 4.65402L13.2121 8.37947L14.442 12.221C15.2666 10.9952 15.7478 9.5216 15.7478 7.93973C15.7478 6.76782 15.4816 5.65323 15.0089 4.65402ZM8.37946 13.2121L4.82589 14.9263C5.8079 15.3826 6.9013 15.6384 8.05134 15.6384C9.56919 15.6384 10.9856 15.1935 12.1808 14.4286L8.37946 13.2121Z" fill="white"/>
</g>
<defs>
<clipPath id="clip0_2239_3005">
<rect width="16" height="16" fill="white"/>
</clipPath>
</defs>
</svg>
