<svg width="16" height="16" viewBox="0 0 16 16" fill="none" xmlns="http://www.w3.org/2000/svg">
<path d="M4 8.74743C4.08093 8.47209 4.26466 8.23844 4.51314 8.09486C6.23886 7.12343 8.61143 10.5143 11.992 8.72114C14.1943 15.6731 1.82743 15.8606 4 8.74743ZM8 16C4.14514 16 0.285713 13.2331 2.13257 7.70286C3.35706 4.8529 5.19225 2.3065 7.50857 0.243429C7.6412 0.110518 7.8139 0.0249707 8 0C8.18669 0.0244226 8.36017 0.109557 8.49371 0.242286C10.8106 2.30557 12.6462 4.85238 13.8709 7.70286C15.7131 13.2331 11.8583 16 8 16ZM8.25143 2.06857C8.17356 2.02487 8.08834 1.99582 8 1.98286C7.91171 1.99607 7.82654 2.0251 7.74857 2.06857C5.79428 3.58171 3.08571 8.10514 3.24457 10.5257C3.38071 11.6759 3.94632 12.7321 4.82813 13.483C5.70994 14.2338 6.84286 14.6238 8 14.5749C9.15645 14.6242 10.2889 14.2352 11.1708 13.4855C12.0527 12.7358 12.6191 11.6807 12.7566 10.5314C12.9154 8.10514 10.2069 3.58171 8.25143 2.06857Z" fill="white"/>
<path d="M9.12 9.17714C9.66816 8.5513 10.2697 7.97427 10.9177 7.45257C11.568 6.98057 11.992 8.72114 11.992 8.72114C11.1177 9.20498 10.1012 9.36637 9.12 9.17714Z" fill="white" fill-opacity="0.496933"/>
</svg>
