<svg width="16" height="16" viewBox="0 0 16 16" fill="none" xmlns="http://www.w3.org/2000/svg">
<g clip-path="url(#clip0_2239_3002)">
<path d="M15.3623 0.829714C15.3625 0.764701 15.3437 0.70104 15.3082 0.646604C15.2726 0.592168 15.2219 0.549344 15.1623 0.523429C14.696 0.326857 13.1463 0 8 0C2.85372 0 1.30629 0.326857 0.840002 0.523429C0.779983 0.549248 0.728899 0.592174 0.693128 0.646848C0.657356 0.701522 0.638481 0.765522 0.638859 0.830857V9.33371C0.637969 9.51614 0.6874 9.69528 0.781716 9.85143C2.58629 12.8229 6.89257 15.4 7.82172 15.9531C7.87352 15.9842 7.93277 16.0005 7.99315 16.0005C8.05352 16.0005 8.11277 15.9842 8.16457 15.9531C9.06743 15.4023 13.376 12.8811 15.2149 9.856C15.3104 9.69942 15.3606 9.51942 15.36 9.336L15.3623 0.829714ZM8 13.6777C8.06743 13.6926 3.93143 11.3726 2.48686 8.68571V1.78857C2.48686 1.78857 2.48686 1.272 8 1.272V13.6777Z" fill="white"/>
</g>
<defs>
<clipPath id="clip0_2239_3002">
<rect width="16" height="16" fill="white"/>
</clipPath>
</defs>
</svg>
