<svg width="16" height="16" viewBox="0 0 16 16" fill="none" xmlns="http://www.w3.org/2000/svg">
  <g clip-path="url(#clipER)">
    <path d="M9.5 0.5C9.61489 0.5 9.72572 0.544026 9.81066 0.623855C9.8956 0.703685 9.94841 0.813473 9.9585 0.931347L10.8994 7.86719L14.6182 6.03916C14.7292 5.98169 14.8575 5.9647 14.9798 5.99122C15.1022 6.01773 15.2111 6.086 15.2871 6.18359C15.3655 6.27848 15.4063 6.39668 15.4026 6.51766C15.399 6.63864 15.3512 6.75445 15.2671 6.84521L7.51709 15.3452C7.42824 15.4401 7.3078 15.5006 7.17773 15.5161C7.04766 15.5317 6.91674 15.5012 6.80835 15.4303C6.69996 15.3593 6.62109 15.2525 6.58521 15.1287C6.54932 15.0049 6.55864 14.8722 6.61157 14.7546L8.2334 11.0576L2.9707 12.3649C2.84168 12.3972 2.7052 12.3842 2.58421 12.3281C2.46322 12.272 2.36494 12.1759 2.30518 12.0547C2.24571 11.9307 2.22924 11.7892 2.2583 11.6538C2.28737 11.5184 2.35995 11.3959 2.46533 11.3057L9.46533 1.30566C9.54682 1.1941 9.66803 1.12006 9.80363 1.0985C9.93634 1.07694 10.0734 1.10925 10.1836 1.18945C10.2938 1.26965 10.369 1.39206 10.3945 1.53125L10.8477 4.94824L9.43091 1.16016C9.38958 1.05366 9.31563 0.962081 9.21912 0.897973C9.12262 0.833865 9.00816 0.800135 8.89136 0.80127C8.77456 0.802405 8.66075 0.838368 8.56543 0.904297L6.78003 2.03174L7.62891 2.90088L9.5 0.5Z" fill="white"/>
  </g>
  <defs>
    <clipPath id="clipER">
      <rect width="16" height="16" fill="white"/>
    </clipPath>
  </defs>
</svg>
