<svg width="16" height="16" viewBox="0 0 16 16" fill="none" xmlns="http://www.w3.org/2000/svg">
<g clip-path="url(#clip0_2239_3001)">
<path d="M8.86286 1.88686L10.7406 3.76457L12.944 1.56343L12.9143 0.285715C12.9167 0.218204 12.9452 0.154252 12.9938 0.107346C13.0424 0.0604394 13.1073 0.034245 13.1749 0.0342865H15.6891C15.7235 0.0342862 15.7574 0.0410638 15.7891 0.0542301C15.8208 0.0673965 15.8496 0.0866923 15.8738 0.11101C15.898 0.135327 15.9172 0.164187 15.9302 0.195933C15.9432 0.227679 15.9499 0.261686 15.9497 0.296001C15.8114 3.336 16.5851 3.104 14.4217 3.03886L12.2126 5.23886L14.0914 7.12C14.1401 7.16885 14.1675 7.23502 14.1675 7.304C14.1675 7.37298 14.1401 7.43915 14.0914 7.488C12.7577 8.86857 13.2057 8.52457 11.9291 7.36686L3.75657 15.5349C3.66206 15.6313 3.53385 15.6875 3.39886 15.6914C2.2812 15.8603 1.15314 15.9512 0.0228577 15.9634C0.0346099 14.8335 0.125499 13.7058 0.294858 12.5886C0.295129 12.5207 0.308797 12.4536 0.335077 12.391C0.361357 12.3285 0.399732 12.2717 0.448001 12.224L8.61486 4.04914L7.65714 3.09029C7.60836 3.04125 7.58098 2.97489 7.58098 2.90571C7.58098 2.83654 7.60836 2.77018 7.65714 2.72114L8.49372 1.88686C8.54256 1.83815 8.60873 1.81079 8.67772 1.81079C8.7467 1.81079 8.81401 1.83815 8.86286 1.88686Z" fill="white"/>
</g>
<defs>
<clipPath id="clip0_2239_3001">
<rect width="16" height="16" fill="white"/>
</clipPath>
</defs>
</svg>
