<svg width="16" height="16" viewBox="0 0 16 16" fill="none" xmlns="http://www.w3.org/2000/svg">
  <g clip-path="url(#clipCR)">
    <path d="M8 0C8.27614 0 8.5 0.223858 8.5 0.5V2.5C8.5 2.77614 8.27614 3 8 3C7.72386 3 7.5 2.77614 7.5 2.5V0.5C7.5 0.223858 7.72386 0 8 0Z" fill="white"/>
    <path d="M8 13C8.27614 13 8.5 13.2239 8.5 13.5V15.5C8.5 15.7761 8.27614 16 8 16C7.72386 16 7.5 15.7761 7.5 15.5V13.5C7.5 13.2239 7.72386 13 8 13Z" fill="white"/>
    <path d="M0 8C0 7.72386 0.223858 7.5 0.5 7.5H2.5C2.77614 7.5 3 7.72386 3 8C3 8.27614 2.77614 8.5 2.5 8.5H0.5C0.223858 8.5 0 8.27614 0 8Z" fill="white"/>
    <path d="M13 8C13 7.72386 13.2239 7.5 13.5 7.5H15.5C15.7761 7.5 16 7.72386 16 8C16 8.27614 15.7761 8.5 15.5 8.5H13.5C13.2239 8.5 13 8.27614 13 8Z" fill="white"/>
    <circle cx="8" cy="8" r="3" stroke="white" stroke-width="1.2" fill="none"/>
    <circle cx="8" cy="8" r="1" fill="white"/>
    <path d="M7.64645 3.64645C7.84171 3.45118 8.15829 3.45118 8.35355 3.64645L10.3536 5.64645C10.5488 5.84171 10.5488 6.15829 10.3536 6.35355C10.1583 6.54882 9.84171 6.54882 9.64645 6.35355L8 4.70711L6.35355 6.35355C6.15829 6.54882 5.84171 6.54882 5.64645 6.35355C5.45118 6.15829 5.45118 5.84171 5.64645 5.64645L7.64645 3.64645Z" fill="white"/>
    <path d="M7.64645 12.3536C7.84171 12.5488 8.15829 12.5488 8.35355 12.3536L10.3536 10.3536C10.5488 10.1583 10.5488 9.84171 10.3536 9.64645C10.1583 9.45118 9.84171 9.45118 9.64645 9.64645L8 11.2929L6.35355 9.64645C6.15829 9.45118 5.84171 9.45118 5.64645 9.64645C5.45118 9.84171 5.45118 10.1583 5.64645 10.3536L7.64645 12.3536Z" fill="white"/>
  </g>
  <defs>
    <clipPath id="clipCR">
      <rect width="16" height="16" fill="white"/>
    </clipPath>
  </defs>
</svg>
